<?xml version="1.0" standalone="no"?>
<!DOCTYPE svg PUBLIC "-//W3C//DTD SVG 20010904//EN"
 "http://www.w3.org/TR/2001/REC-SVG-20010904/DTD/svg10.dtd">
<svg version="1.0" xmlns="http://www.w3.org/2000/svg"
 width="335.000000pt" height="541.000000pt" viewBox="0 0 335.000000 541.000000"
 preserveAspectRatio="xMidYMid meet">

<g transform="translate(0.000000,541.000000) scale(0.100000,-0.100000)"
fill="#000000" stroke="none">
<path d="M1220 5261 c-56 -11 -99 -42 -120 -86 -23 -48 -26 -122 -6 -168 16
-39 105 -130 164 -167 l43 -28 -35 -21 c-81 -51 -206 -219 -272 -368 -52 -117
-85 -217 -79 -241 9 -35 47 -26 58 14 5 18 43 74 84 125 40 52 87 117 104 146
111 192 283 279 594 298 248 16 629 -49 735 -125 49 -35 106 -132 142 -239 30
-92 31 -103 31 -256 -1 -274 -56 -521 -165 -739 -55 -111 -192 -318 -299 -451
-38 -48 -69 -95 -67 -104 4 -17 51 -21 98 -7 l25 7 3 -83 c8 -213 46 -391 143
-670 33 -95 71 -207 84 -248 102 -323 104 -501 9 -693 -42 -85 -61 -112 -151
-212 -124 -138 -150 -217 -118 -362 17 -79 70 -234 120 -352 32 -75 30 -139
-5 -197 l-22 -34 139 0 138 0 -6 92 c-5 92 -7 95 -86 253 -44 88 -100 202
-124 254 l-43 93 26 22 c14 11 42 34 62 49 44 34 153 176 192 252 16 30 32 55
35 55 18 0 180 -144 217 -192 62 -83 117 -90 168 -22 41 53 45 133 11 208 -45
99 -155 191 -275 230 l-49 17 0 137 c0 174 -8 214 -103 512 -125 392 -174 571
-219 801 -11 58 -27 125 -35 147 l-15 42 78 92 c94 111 149 194 202 307 120
252 179 510 179 781 -1 208 -33 357 -110 510 l-29 58 42 7 c187 32 402 163
443 271 10 26 18 75 18 109 1 75 -17 107 -85 145 -36 20 -58 25 -119 25 -97 0
-170 -34 -256 -119 -48 -48 -72 -86 -119 -181 -32 -66 -60 -121 -61 -123 -1
-1 -41 9 -89 23 -238 69 -489 96 -711 76 -77 -6 -151 -14 -166 -18 -23 -4 -28
-2 -28 15 0 34 -50 183 -75 222 -37 58 -88 97 -145 109 -28 6 -54 10 -58 10
-4 -1 -23 -4 -42 -8z"/>
<path d="M1160 4348 c-38 -53 -54 -106 -46 -152 9 -49 39 -63 90 -42 93 39
101 236 10 236 -16 0 -33 -13 -54 -42z"/>
<path d="M2106 4330 c-31 -37 -40 -81 -34 -162 4 -51 9 -65 32 -85 52 -45 114
-19 136 58 17 59 12 150 -10 187 -17 27 -25 32 -59 32 -31 0 -44 -6 -65 -30z"/>
<path d="M1090 4102 c-66 -21 -80 -43 -80 -127 0 -45 11 -92 44 -187 52 -152
83 -208 148 -270 113 -108 194 -89 331 74 125 150 227 319 227 376 0 75 -75
124 -215 141 -142 17 -389 13 -455 -7z"/>
<path d="M806 4057 c-14 -14 -35 -58 -48 -98 -20 -65 -23 -94 -23 -244 1 -141
4 -185 23 -258 49 -195 127 -331 266 -465 82 -79 195 -161 250 -182 l26 -10
-25 -50 c-23 -45 -29 -50 -59 -50 -51 0 -202 47 -276 86 -69 36 -151 105 -169
141 -7 13 -9 44 -5 76 8 72 -15 151 -61 204 -39 46 -124 93 -167 93 -62 0
-110 -46 -137 -130 l-11 -35 -67 0 c-87 -1 -128 -22 -154 -78 -10 -23 -19 -63
-19 -88 0 -36 -5 -51 -25 -69 -74 -70 -41 -236 62 -318 40 -31 115 -72 132
-72 6 0 41 -22 78 -49 119 -86 348 -189 526 -236 40 -11 66 -23 63 -29 -117
-271 -156 -430 -156 -647 0 -142 21 -271 67 -409 58 -174 103 -250 221 -366
56 -56 102 -106 102 -111 0 -4 14 -80 30 -168 16 -88 30 -165 30 -172 0 -6
-26 -27 -57 -47 -105 -63 -162 -146 -163 -233 l0 -43 93 0 c79 1 89 3 74 14
-40 31 -17 68 111 174 77 64 82 88 51 273 -14 82 -24 149 -22 149 2 0 33 -9
69 -21 35 -11 108 -28 161 -37 l97 -17 8 -40 c4 -22 18 -102 33 -177 28 -150
26 -167 -25 -213 -19 -18 -60 -85 -60 -100 0 -3 29 -5 65 -5 55 0 68 4 88 24
14 14 44 30 67 36 55 15 90 50 90 91 0 17 -18 88 -39 158 -63 201 -81 274 -81
323 0 44 -2 46 -39 62 -22 8 -70 20 -108 27 -285 47 -315 58 -415 160 -269
275 -343 576 -243 980 31 125 80 253 202 529 55 124 112 260 128 302 15 43 31
75 35 73 24 -15 124 -25 189 -19 83 7 111 26 111 73 0 38 -14 48 -96 65 -77
17 -228 68 -289 98 -219 111 -362 294 -439 562 -33 112 -35 248 -6 385 17 78
18 98 7 120 -16 35 -41 38 -71 8z m-196 -966 c5 -11 10 -53 10 -94 0 -72 1
-75 46 -133 69 -89 119 -129 229 -183 91 -46 128 -59 251 -91 l42 -10 -62
-115 c-49 -92 -65 -115 -83 -115 -45 0 -261 62 -358 103 -61 26 -150 77 -229
130 -70 49 -146 95 -167 103 -63 26 -62 78 3 100 42 14 58 51 39 97 -23 56
-24 81 -3 107 19 23 22 24 73 13 73 -14 104 -2 120 45 18 60 67 83 89 43z"/>
<path d="M1994 3467 c-12 -6 -46 -32 -75 -56 -124 -101 -269 -143 -421 -122
-100 14 -119 11 -139 -25 -11 -22 -11 -29 2 -52 19 -35 81 -50 209 -51 177 -1
313 51 450 173 76 67 88 116 33 137 -31 11 -33 11 -59 -4z"/>
<path d="M2017 2605 c-54 -53 -40 -482 32 -1000 16 -115 34 -258 40 -316 6
-61 19 -129 31 -160 l21 -52 -20 -21 -20 -20 -47 24 c-57 28 -70 22 -102 -43
-22 -47 -48 -63 -88 -55 -10 2 -32 27 -48 56 -35 60 -51 68 -143 65 -62 -1
-63 -1 -63 25 0 18 15 40 55 76 l54 51 17 105 c14 91 16 161 11 525 -5 320
-10 442 -22 510 -20 115 -41 159 -77 163 -24 3 -28 -1 -34 -35 -4 -21 -1 -207
7 -413 14 -383 15 -584 4 -678 -6 -49 -12 -59 -70 -117 -80 -81 -99 -132 -93
-249 5 -90 22 -127 69 -152 39 -20 106 -17 156 6 l43 19 14 -28 c22 -42 81
-89 120 -96 44 -9 99 9 139 45 27 23 41 28 84 27 41 -1 58 5 87 27 100 76 126
192 72 321 -11 25 -11 43 -3 78 7 33 7 68 -1 119 -64 438 -95 671 -117 873
-28 272 -40 328 -72 333 -11 2 -28 -4 -36 -13z"/>
</g>
</svg>
