<?xml version="1.0" encoding="UTF-8" standalone="no"?>
<svg
   xmlns:dc="http://purl.org/dc/elements/1.1/"
   xmlns:cc="http://creativecommons.org/ns#"
   xmlns:rdf="http://www.w3.org/1999/02/22-rdf-syntax-ns#"
   xmlns:svg="http://www.w3.org/2000/svg"
   xmlns="http://www.w3.org/2000/svg"
   viewBox="0 0 1812 498.22668"
   height="498.22668"
   width="1812"
   xml:space="preserve"
   id="svg2"
   version="1.1"><metadata
     id="metadata8"><rdf:RDF><cc:Work
         rdf:about=""><dc:format>image/svg+xml</dc:format><dc:type
           rdf:resource="http://purl.org/dc/dcmitype/StillImage" /></cc:Work></rdf:RDF></metadata><defs
     id="defs6" /><g
     transform="matrix(1.3333333,0,0,-1.3333333,0,498.22667)"
     id="g10"><g
       transform="scale(0.1)"
       id="g12"><path
         id="path14"
         style="fill:#211817;fill-opacity:1;fill-rule:nonzero;stroke:none"
         d="m 6259.19,3736.66 h -580 l -40.04,-120 H 5870 v -720 h 160 v 720 h 189.15 l 40.04,120" /><path
         id="path16"
         style="fill:#211817;fill-opacity:1;fill-rule:nonzero;stroke:none"
         d="m 7020,3736.66 h -80 l 50,-75 v -275 h -360 v 350 h -120 -30 -50 l 50,-75 v -765 h 150 v 380 h 360 v -380 h 150 v 840 h -120" /><path
         id="path18"
         style="fill:#211817;fill-opacity:1;fill-rule:nonzero;stroke:none"
         d="m 7919.98,3276.66 40.04,110 H 7590 v 240 h 329.98 l 40.04,110 H 7590 7480.02 7480 h -40 -40 l 40,-70 v -39.95 l -0.02,-0.05 h 0.02 v -349.95 l -0.02,-0.05 h 0.02 v -379.95 l -0.02,-0.05 h 0.02 150 329.98 l 40.04,110 H 7590 v 270 h 329.98" /><path
         id="path20"
         style="fill:#211817;fill-opacity:1;fill-rule:nonzero;stroke:none"
         d="m 1320,2026.66 h -120 l 90,-150 v -670 H 460 v 820 H 120 90 0 l 90,-150 V 46.6602 H 460 V 936.66 h 830 V 46.6602 h 370 V 2026.66 h -340" /><path
         id="path22"
         style="fill:#211817;fill-opacity:1;fill-rule:nonzero;stroke:none"
         d="m 3928.36,2026.66 h -476.67 l 60,-149.16 -432.3,-727.56 L 2560,2026.66 H 2130 L 2850,837.27 V 46.6602 h 370 V 843.219 l 708.36,1183.441" /><path
         id="path24"
         style="fill:#211817;fill-opacity:1;fill-rule:nonzero;stroke:none"
         d="m 5600,2026.66 h -110 l 90,-159.09 V 381.18 C 5441.49,269.07 5256.7,276.66 5256.7,276.66 c -433.34,0 -466.67,470 -466.67,470 H 4790 v 1280 h -340 -20 -90 l 90,-159.09 V 586.66 C 4430,418.32 4543.36,268.34 4603.36,201.672 4663.36,135 4838.36,0 5093.36,0 c 255,0 390,76.6602 488.34,128.328 C 5680.03,180 5940,346.66 5940,346.66 v 1680 h -340" /><path
         id="path26"
         style="fill:#211817;fill-opacity:1;fill-rule:nonzero;stroke:none"
         d="m 8000,2026.66 h -120 l 90,-157.5 V 633.691 L 6940,2026.66 h -420 l 100,-139.43 V 36.6602 h 290 V 1482.86 L 7940,46.6602 h 30 20 270 V 2026.66 h -260" /><path
         id="path28"
         style="fill:#211817;fill-opacity:1;fill-rule:nonzero;stroke:none"
         d="m 10066.7,459.98 c 0,0 -150.05,-153.32 -346.7,-153.32 h -140 -20 -270 v 1450 h 214.77 c 84.59,-6.97 354.6,-42.69 531.93,-220.01 212.5,-212.5 230,-470.01 230,-546.67 0,-76.66 -26.7,-356.66 -200,-530 z m 275,1311.64 c 0,0 -268.4,255.04 -611.7,255.04 h -440 -20 -320 -30 -80 l 80,-145.46 V 36.6602 h 360 10 290 c 0,0 275.02,6.6601 580,219.9878 305,213.332 481.7,428.34 481.7,826.672 0,398.33 -300,688.3 -300,688.3" /><path
         id="path30"
         style="fill:#211817;fill-opacity:1;fill-rule:nonzero;stroke:none"
         d="m 12058.5,846.66 h -609.6 l 306.2,690.5 z m 114.2,-260 237.3,-539.9998 h 393.3 L 11930,2026.66 h -390 l 60.8,-138.32 L 10795,46.6602 h 416.7 l -55,140.8198 177,399.18 h 839" /><path
         id="path32"
         style="fill:#211817;fill-opacity:1;fill-rule:nonzero;stroke:none"
         d="m 13270,2026.66 h -130 l 90,-152.3 V 46.6602 h 360 V 2026.66 h -320" /></g></g></svg>